<svg viewBox="0 0 43 43" xmlns="http://www.w3.org/2000/svg">
    <path d="M26.5704 20.228L18.9737 12.6313C18.8072 12.4634 18.609 12.3301 18.3907 12.2391C18.1724 12.1481 17.9382 12.1013 17.7017 12.1013C17.4651 12.1013 17.231 12.1481 17.0126 12.2391C16.7943 12.3301 16.5961 12.4634 16.4296 12.6313C16.0959 12.967 15.9086 13.4211 15.9086 13.8944C15.9086 14.3677 16.0959 14.8218 16.4296 15.1575L22.7721 21.5L16.4296 27.8425C16.0959 28.1782 15.9086 28.6323 15.9086 29.1057C15.9086 29.579 16.0959 30.0331 16.4296 30.3688C16.597 30.5348 16.7955 30.6662 17.0138 30.7554C17.2321 30.8445 17.4659 30.8897 17.7017 30.8884C17.9375 30.8897 18.1712 30.8445 18.3895 30.7554C18.6078 30.6662 18.8063 30.5348 18.9737 30.3688L26.5704 22.7721C26.7383 22.6056 26.8716 22.4074 26.9626 22.1891C27.0535 21.9707 27.1004 21.7366 27.1004 21.5C27.1004 21.2635 27.0535 21.0293 26.9626 20.811C26.8716 20.5927 26.7383 20.3945 26.5704 20.228Z" fill="white"/>
</svg>
